<svg id="fontsvg" xmlns="http://www.w3.org/2000/svg" version="1.1" width="100%" viewBox="0 0 1000 1000">
    <path d="M445 750L445 728L678 728C674 676 668 626 658 579L488 579L488 124L510 124L510 557L868 557L868 129L890 129L890 579L680 579C688 627 695 676 699 728L937 728L937 750L445 750ZM751 100L735 86C813 22 877-39 925-97L940-82C890-22 827 39 751 100ZM674 477L674 295C674 201 652 124 609 64C559 5 481-40 375-71L389-89C497-55 575-9 623 48C671 109 695 191 695 295L695 477L674 477ZM198-84C237-84 257-64 257-25L257 728L396 728L396 750L62 750L62 728L235 728L235-19C235-49 220-65 190-65C153-65 114-64 73-63L77-84L198-84Z"  transform="matrix(1,0,0,-1,0,850)"/>
</svg>
